<svg xmlns="http://www.w3.org/2000/svg" viewBox="0 0 400 400">
  <rect width="400" height="400" fill="#120000"/>
  <path d="M70 360 Q70 210 200 200 Q330 210 330 360 Z" fill="#c41212"/>
  <path d="M118 118 L148 48 L178 118 Z" fill="#c41212"/>
  <path d="M222 118 L252 48 L282 118 Z" fill="#c41212"/>
  <ellipse cx="200" cy="210" rx="118" ry="100" fill="#3a9a3a"/>
  <path d="M110 168 Q200 120 290 168 Q280 250 200 268 Q120 250 110 168 Z" fill="#2f8a2f"/>
  <ellipse cx="158" cy="198" rx="38" ry="28" fill="#fff"/>
  <ellipse cx="242" cy="198" rx="38" ry="28" fill="#fff"/>
  <circle cx="168" cy="202" r="12" fill="#111"/>
  <circle cx="232" cy="202" r="12" fill="#111"/>
  <path d="M130 250 Q200 278 270 250" fill="none" stroke="#8a4a18" stroke-width="18" stroke-linecap="round"/>
  <path d="M280 250 Q320 280 300 330 Q270 300 250 290" fill="#c41212"/>
</svg>
